<?xml version="1.0" standalone="no"?>
<!DOCTYPE svg PUBLIC "-//W3C//DTD SVG 20010904//EN"
 "http://www.w3.org/TR/2001/REC-SVG-20010904/DTD/svg10.dtd">
<svg version="1.0" xmlns="http://www.w3.org/2000/svg"
 width="512" height="512" viewBox="174 155 906 906"
 preserveAspectRatio="xMidYMid meet">

<g transform="translate(0.000000,1254.000000) scale(0.100000,-0.100000)"
fill="#ff385c" stroke="none">
<path d="M6134 10655 c-140 -31 -260 -100 -357 -204 -109 -119 -177 -287 -177
-445 -1 -47 -6 -91 -14 -104 -7 -13 -48 -43 -92 -66 -43 -24 -79 -48 -79 -54
0 -6 -4 -14 -9 -19 -5 -5 -6 -3 -2 5 4 6 3 12 -1 12 -11 0 -406 -225 -693
-395 -58 -34 -153 -90 -212 -124 -60 -35 -106 -67 -103 -72 3 -4 -5 -13 -17
-19 -22 -11 -22 -10 -4 4 37 30 3 16 -85 -35 -53 -30 -86 -55 -83 -61 4 -7 2
-8 -4 -4 -15 9 -243 -124 -235 -137 3 -6 1 -7 -5 -3 -6 4 -57 -20 -114 -54
-56 -33 -112 -60 -125 -60 -13 0 -49 18 -81 39 -296 203 -716 138 -927 -141
-64 -85 -100 -163 -126 -276 -70 -301 82 -624 358 -760 28 -14 56 -36 62 -49
8 -17 11 -369 11 -1174 0 -966 -2 -1155 -14 -1183 -9 -23 -30 -43 -63 -62
-178 -103 -305 -266 -349 -449 -22 -90 -22 -239 0 -329 51 -213 228 -404 441
-474 189 -63 406 -42 579 58 66 37 92 40 137 13 18 -11 175 -104 347 -207 176
-106 317 -184 324 -180 6 4 8 3 5 -3 -6 -9 1099 -683 1119 -683 4 0 17 -8 28
-18 20 -16 20 -16 7 0 -9 12 -10 18 -2 18 6 0 11 -1 12 -2 0 -2 2 -37 6 -78
20 -275 240 -530 513 -594 82 -20 234 -20 324 -1 210 44 398 207 483 415 25
62 55 218 45 234 -3 5 0 6 5 3 6 -4 16 0 23 8 7 8 16 15 21 15 4 0 158 90 341
201 183 111 415 251 515 311 101 61 180 114 178 118 -3 5 0 12 6 16 8 4 9 3 5
-4 -10 -17 7 -15 30 4 17 14 17 15 1 10 -11 -4 -16 -2 -12 5 4 6 14 8 22 5 17
-7 175 83 168 95 -3 3 3 6 13 5 9 0 16 5 14 12 -1 8 2 11 7 7 6 -3 126 64 268
150 150 90 268 155 282 155 14 0 59 -17 101 -39 141 -73 274 -99 415 -81 165
21 285 79 401 195 131 131 197 290 197 470 -1 222 -90 412 -257 546 -53 44
-168 112 -182 109 -3 -1 -9 2 -12 6 -4 4 -1 3 7 -1 11 -6 13 -4 8 9 -9 22 -9
2333 -1 2364 4 14 35 39 87 70 195 115 319 298 348 516 28 213 -31 400 -175
552 -85 91 -167 144 -280 180 -203 64 -420 33 -607 -87 -25 -16 -54 -29 -63
-29 -10 0 -47 17 -84 37 -36 20 -62 31 -58 25 12 -19 -10 -14 -35 9 -24 20
-24 20 -1 9 50 -24 17 1 -58 44 -82 48 -96 53 -84 35 4 -8 0 -8 -15 0 -25 14
-28 23 -3 14 38 -13 -9 17 -155 101 -90 51 -158 84 -165 80 -7 -4 -10 -4 -6 1
5 5 0 14 -10 20 -26 19 -940 551 -1070 624 -74 42 -117 72 -126 90 -7 14 -16
67 -19 116 -6 94 -41 230 -57 220 -6 -3 -7 1 -4 9 11 27 -88 182 -108 169 -6
-3 -8 -2 -5 4 9 14 -66 84 -141 131 -76 49 -149 75 -188 67 -22 -4 -24 -3 -9
3 16 8 10 11 -33 21 -69 14 -191 13 -268 -4z m-7 -21 c-3 -3 -12 -4 -19 -1 -8
3 -5 6 6 6 11 1 17 -2 13 -5z m770 -416 c-3 -8 -6 -5 -6 6 -1 11 2 17 5 13 3
-3 4 -12 1 -19z m22 -68 c0 -9 -4 -8 -9 5 -5 11 -9 27 -9 35 0 9 4 8 9 -5 5
-11 9 -27 9 -35z m-89 -742 c19 -11 87 -51 150 -88 166 -96 503 -294 660 -387
193 -115 513 -301 743 -433 138 -79 202 -121 211 -139 7 -14 16 -62 19 -106 8
-104 30 -184 73 -270 65 -129 108 -174 294 -308 l45 -33 3 -1172 c2 -1328 10
-1208 -85 -1269 -79 -50 -115 -53 -194 -13 -135 69 -546 314 -581 348 -89 85
-96 157 -35 385 45 169 56 245 36 259 -11 8 -11 9 2 5 14 -4 17 8 23 76 17
223 -4 458 -60 662 -57 212 -149 424 -206 477 -30 28 -55 38 -42 16 4 -7 3 -8
-5 -4 -6 4 -9 11 -6 16 11 17 -54 40 -113 40 -80 0 -156 -38 -197 -100 -25
-37 -30 -57 -33 -117 -4 -70 -2 -77 46 -180 116 -245 158 -443 149 -698 -9
-246 -46 -393 -153 -610 -110 -222 -280 -420 -474 -551 -54 -37 -97 -71 -94
-75 2 -4 -1 -11 -7 -15 -8 -4 -9 -3 -5 4 11 18 2 15 -82 -27 -463 -232 -1013
-193 -1447 103 -107 73 -267 224 -337 318 -28 37 -54 65 -59 63 -4 -3 -11 0
-15 6 -4 8 -3 9 4 5 18 -11 15 0 -12 42 -93 147 -172 364 -206 567 -41 240
-12 501 82 742 21 57 36 108 32 114 -5 8 -3 9 6 4 10 -6 12 -4 6 11 -4 10 -4
15 0 11 4 -3 33 36 65 89 75 122 103 158 219 277 134 139 279 238 463 317 190
81 465 130 642 115 99 -8 252 -37 345 -65 39 -11 75 -18 82 -14 6 4 8 3 5 -3
-3 -5 20 -20 51 -33 31 -13 108 -47 170 -77 101 -48 119 -53 180 -53 197 0
311 175 218 335 -21 35 -49 60 -112 101 -176 115 -452 225 -571 228 -34 0 -64
4 -68 7 -3 4 7 5 22 3 15 -2 2 5 -31 15 -32 11 -71 32 -86 46 -16 15 -31 26
-35 25 -4 -1 -10 2 -13 6 -4 4 -2 5 3 2 7 -4 9 127 7 387 -3 388 -2 393 20
451 13 33 23 65 23 71 0 7 3 12 7 10 3 -1 17 8 30 19 13 12 45 36 72 53 60 37
106 40 156 9z m-922 -34 c30 -22 59 -39 63 -39 4 0 11 -4 16 -9 5 -5 2 -6 -6
-1 -7 4 -12 4 -9 -1 2 -5 17 -36 33 -69 l30 -60 0 -382 c0 -437 4 -415 -93
-465 -29 -14 -46 -29 -40 -31 7 -3 0 -3 -17 -1 -40 7 -252 -55 -384 -112 -223
-95 -434 -245 -621 -440 -251 -262 -413 -577 -497 -963 -25 -117 -27 -143 -28
-366 0 -259 8 -323 71 -548 54 -190 54 -221 -1 -301 -13 -20 -22 -43 -19 -51
4 -9 0 -15 -7 -16 -8 -1 -19 -2 -24 -3 -25 -3 -154 -89 -148 -99 3 -6 1 -7 -6
-3 -6 4 -100 -44 -219 -112 -221 -127 -268 -148 -309 -137 -46 11 -112 64
-140 113 l-28 47 -3 1135 c-1 624 0 1150 3 1168 5 27 18 40 73 76 127 82 229
196 278 312 29 68 54 177 54 237 0 81 18 109 100 158 39 23 70 43 70 46 0 2
-5 1 -12 -3 -6 -4 -8 -3 -4 4 3 6 14 10 24 9 15 -1 157 80 647 368 374 220
892 521 974 566 53 29 109 21 179 -27z m2442 -290 c0 -2 -9 0 -20 6 -11 6 -20
13 -20 16 0 2 9 0 20 -6 11 -6 20 -13 20 -16z m957 -120 c-3 -3 -12 -4 -19 -1
-8 3 -5 6 6 6 11 1 17 -2 13 -5z m-5944 -11 c-7 -2 -21 -2 -30 0 -10 3 -4 5
12 5 17 0 24 -2 18 -5z m6144 -19 c-3 -3 -12 -4 -19 -1 -8 3 -5 6 6 6 11 1 17
-2 13 -5z m-5948 -40 c14 -12 -19 -1 -35 12 -18 14 -18 14 6 3 14 -6 27 -13
29 -15z m5460 12 c-2 -2 -15 -9 -29 -15 -24 -11 -24 -11 -6 3 16 13 49 24 35
12z m-1619 -938 c25 -41 25 -51 1 -39 -10 6 -21 24 -23 41 -6 38 -2 38 22 -2z
m-1337 -85 c-7 -2 -19 -2 -25 0 -7 3 -2 5 12 5 14 0 19 -2 13 -5z m977 -183
c19 -11 31 -19 25 -19 -5 0 -26 8 -45 19 -19 11 -30 19 -25 19 6 0 26 -8 45
-19z m193 -47 c-7 -2 -21 -2 -30 0 -10 3 -4 5 12 5 17 0 24 -2 18 -5z m522
-203 c-11 -5 -29 -9 -40 -9 -17 -1 -17 1 -5 9 8 5 26 9 40 9 23 0 23 -1 5 -9z
m-185 -206 c0 -8 -4 -14 -9 -14 -5 0 -12 -8 -14 -17 -3 -10 -5 -1 -6 19 -1 29
2 36 14 32 8 -4 15 -12 15 -20z m620 -731 c0 -28 -3 -34 -10 -23 -13 20 -13
60 0 60 6 0 10 -17 10 -37z m-3383 -185 c-3 -8 -6 -5 -6 6 -1 11 2 17 5 13 3
-3 4 -12 1 -19z m3370 -120 c-3 -7 -5 -2 -5 12 0 14 2 19 5 13 2 -7 2 -19 0
-25z m-3330 -130 c-3 -8 -6 -5 -6 6 -1 11 2 17 5 13 3 -3 4 -12 1 -19z m3843
-874 c0 -2 -9 0 -20 6 -11 6 -20 13 -20 16 0 2 9 0 20 -6 11 -6 20 -13 20 -16z
m1021 -81 c10 -12 5 -11 -18 6 -18 12 -33 24 -33 27 0 9 37 -15 51 -33z
m-4901 -6 c24 -11 85 -59 135 -105 377 -353 772 -522 1261 -539 295 -10 540
28 773 121 213 86 416 221 620 411 152 143 213 163 324 105 31 -17 62 -28 67
-25 6 4 9 1 8 -5 -3 -11 84 -64 367 -227 148 -85 172 -105 209 -172 60 -111
38 -180 -83 -256 -44 -27 -78 -51 -76 -54 3 -2 13 2 22 10 16 13 17 12 4 -4
-8 -10 -21 -15 -29 -12 -17 6 -134 -63 -127 -76 4 -5 -2 -6 -11 -2 -13 5 -15
3 -9 -7 5 -8 4 -11 -3 -6 -14 8 -277 -149 -277 -167 0 -6 -9 -11 -19 -10 -10
0 -181 -97 -379 -216 -669 -402 -753 -451 -776 -451 -28 0 -57 15 -98 51 -39
34 -144 93 -203 115 -124 45 -317 47 -450 5 -71 -23 -172 -78 -229 -128 -21
-17 -53 -34 -73 -38 -40 -8 -21 -18 -1240 712 -262 157 -463 271 -470 267 -6
-4 -8 -3 -5 3 4 5 -5 16 -19 23 -13 8 -34 29 -45 47 -22 36 -53 136 -39 128 5
-3 12 5 15 17 4 13 23 47 42 75 28 41 56 65 132 111 148 91 527 311 553 322
29 11 71 4 128 -23z m130 -72 c13 -14 21 -25 18 -25 -2 0 -15 11 -28 25 -13
14 -21 25 -18 25 2 0 15 -11 28 -25z m4075 -1053 c-3 -3 -11 0 -18 7 -9 10 -8
11 6 5 10 -3 15 -9 12 -12z m-5485 -2 c-8 -5 -19 -10 -25 -10 -5 0 -3 5 5 10
8 5 20 10 25 10 6 0 3 -5 -5 -10z m376 -31 c8 -13 -21 1 -51 26 -19 15 -18 15
12 1 17 -9 35 -21 39 -27z m-773 -6 c-7 -2 -19 -2 -25 0 -7 3 -2 5 12 5 14 0
19 -2 13 -5z m60 -10 c-7 -2 -21 -2 -30 0 -10 3 -4 5 12 5 17 0 24 -2 18 -5z
m2461 -1233 c5 -17 4 -20 -2 -10 -5 8 -13 26 -16 40 -5 17 -4 20 2 10 5 -8 13
-26 16 -40z m1242 -31 c-9 -19 -15 -29 -16 -22 0 15 22 64 27 60 2 -2 -3 -19
-11 -38z"/>
<path d="M6130 7165 c-81 -16 -197 -59 -230 -86 -20 -15 -21 -18 -5 -12 17 6
18 5 7 -9 -7 -9 -22 -18 -33 -21 -17 -5 -18 -3 -7 10 12 15 10 15 -12 3 -43
-22 -202 -189 -196 -205 3 -8 0 -14 -6 -12 -18 3 -85 -140 -109 -230 -28 -105
-30 -252 -5 -353 22 -89 91 -244 105 -235 6 3 15 -5 21 -17 11 -22 10 -22 -4
-4 -21 26 -21 7 0 -22 8 -12 20 -20 25 -17 5 3 6 0 3 -8 -9 -25 143 -157 242
-209 300 -157 686 -92 909 154 30 34 54 67 52 72 -6 16 12 48 23 41 23 -14 97
165 120 289 19 103 8 241 -28 351 -33 99 -87 199 -134 249 -17 17 -24 22 -17
11 14 -20 13 -20 -9 -1 -23 20 -30 32 -12 21 6 -3 10 -2 10 3 0 13 -64 70
-122 110 -49 34 -64 40 -52 20 4 -7 3 -8 -5 -4 -6 4 -8 12 -5 18 5 8 1 9 -10
5 -10 -4 -15 -3 -11 3 10 16 -100 60 -200 81 -103 21 -211 23 -305 4z m177 -1
c-3 -3 -12 -4 -19 -1 -8 3 -5 6 6 6 11 1 17 -2 13 -5z m-584 -248 c-10 -13
-20 -22 -22 -20 -4 4 29 44 36 44 2 0 -4 -11 -14 -24z m1177 -77 c15 -28 5
-23 -15 7 -9 15 -12 23 -6 20 6 -4 16 -16 21 -27z m109 -259 c0 -9 -4 -8 -9 5
-5 11 -9 27 -9 35 0 9 4 8 9 -5 5 -11 9 -27 9 -35z m18 -137 c-3 -10 -5 -4 -5
12 0 17 2 24 5 18 2 -7 2 -21 0 -30z m-10 -165 c-3 -7 -5 -2 -5 12 0 14 2 19
5 13 2 -7 2 -19 0 -25z m-1282 -378 c10 -11 16 -20 13 -20 -3 0 -13 9 -23 20
-10 11 -16 20 -13 20 3 0 13 -9 23 -20z m1077 -22 c-7 -7 -12 -8 -12 -2 0 14
12 26 19 19 2 -3 -1 -11 -7 -17z m-872 -128 c8 -5 11 -10 5 -10 -5 0 -17 5
-25 10 -8 5 -10 10 -5 10 6 0 17 -5 25 -10z m225 -70 l20 -9 -20 1 c-11 0 -31
4 -45 8 l-25 8 25 0 c14 0 34 -3 45 -8z"/>
<path d="M6896 5983 c-6 -14 -5 -15 5 -6 7 7 10 15 7 18 -3 3 -9 -2 -12 -12z"/>
</g>
</svg>
